<svg xmlns="http://www.w3.org/2000/svg" version="1.1" xmlns:xlink="http://www.w3.org/1999/xlink" xmlns:svgjs="http://svgjs.dev/svgjs" width="1280" height="720" preserveAspectRatio="none" viewBox="0 0 1280 720"><g mask="url(&quot;#SvgjsMask1083&quot;)" fill="none"><rect width="1280" height="720" x="0" y="0" fill="rgba(226, 255, 102, 1)"></rect><path d="M1045.16 497.6 a12.88 12.88 0 1 0 25.76 0 a12.88 12.88 0 1 0 -25.76 0z" fill="rgba(221, 64, 58, 1)"></path><path d="M1176.97 90.64L1228.45 90.64L1228.45 142.12L1176.97 142.12z" stroke="rgba(62, 54, 63, 1)"></path><path d="M-31.84 116.43 a61.49 61.49 0 1 0 122.98 0 a61.49 61.49 0 1 0 -122.98 0z" stroke="rgba(221, 64, 58, 1)"></path><path d="M837.12 307.41 a49.66 49.66 0 1 0 99.32 0 a49.66 49.66 0 1 0 -99.32 0z" fill="rgba(221, 64, 58, 1)"></path><path d="M280.65 636.3a64.66 64.66 0 1 0 72.94 106.79z" fill="rgba(62, 54, 63, 1)"></path><path d="M353.22 625.05 a63.27 63.27 0 1 0 126.54 0 a63.27 63.27 0 1 0 -126.54 0z" fill="rgba(221, 64, 58, 1)"></path><path d="M860.73 110.11 a7.19 7.19 0 1 0 14.38 0 a7.19 7.19 0 1 0 -14.38 0z" fill="rgba(221, 64, 58, 1)"></path><path d="M271.84 611.22a6.96 6.96 0 1 0 9.64-10.05z" fill="rgba(62, 54, 63, 1)"></path><path d="M1120.85 383.99 a68.28 68.28 0 1 0 136.56 0 a68.28 68.28 0 1 0 -136.56 0z" stroke="rgba(62, 54, 63, 1)"></path><path d="M562.08 440.94L574.24 440.94L574.24 453.1L562.08 453.1z" fill="rgba(62, 54, 63, 1)"></path><path d="M730.32 666.79L788.73 666.79L788.73 725.2L730.32 725.2z" stroke="rgba(62, 54, 63, 1)"></path><path d="M73.13 93.16L111.12 93.16L111.12 131.15L73.13 131.15z" stroke="rgba(221, 64, 58, 1)"></path><path d="M926.94 93.71 a35.89 35.89 0 1 0 71.78 0 a35.89 35.89 0 1 0 -71.78 0z" fill="rgba(221, 64, 58, 1)"></path><path d="M1247.04 28.83a26.66 26.66 0 1 0-23.1 48.05z" stroke="rgba(221, 64, 58, 1)"></path><path d="M202.27 616.47 a21.31 21.31 0 1 0 42.62 0 a21.31 21.31 0 1 0 -42.62 0z" stroke="rgba(221, 64, 58, 1)"></path><path d="M773.19 181.45L839.15 181.45L839.15 247.41L773.19 247.41z" fill="rgba(62, 54, 63, 1)"></path><path d="M647.53 668.33L708.73 668.33L708.73 729.53L647.53 729.53z" stroke="rgba(221, 64, 58, 1)"></path><path d="M543.06 431.74L611.87 431.74L611.87 500.55L543.06 500.55z" stroke="rgba(221, 64, 58, 1)"></path><path d="M179.48 404.12a50.4 50.4 0 1 0 87.3 50.4z" fill="rgba(221, 64, 58, 1)"></path><path d="M37.71 21.77L71.36 21.77L71.36 33.54L37.71 33.54z" stroke="rgba(221, 64, 58, 1)"></path><path d="M891.15 699.1 a27.4 27.4 0 1 0 54.8 0 a27.4 27.4 0 1 0 -54.8 0z" stroke="rgba(62, 54, 63, 1)"></path><path d="M411.33 611L429.87 611L429.87 629.54L411.33 629.54z" stroke="rgba(221, 64, 58, 1)"></path><path d="M215.66 451.88L257.05 451.88L257.05 493.27L215.66 493.27z" fill="rgba(221, 64, 58, 1)"></path></g><defs><mask id="SvgjsMask1083"><rect width="1280" height="720" fill="#ffffff"></rect></mask></defs></svg>