<svg xmlns="http://www.w3.org/2000/svg" version="1.1" xmlns:xlink="http://www.w3.org/1999/xlink" xmlns:svgjs="http://svgjs.dev/svgjs" width="1280" height="720" preserveAspectRatio="none" viewBox="0 0 1920 1200"><g mask="url(&quot;#SvgjsMask1278&quot;)" fill="none"><rect width="1920" height="1200" x="0" y="0" fill="url(&quot;#SvgjsRadialGradient1279&quot;)"></rect><path d="M41.996,129.439C77.162,130.736,115.867,125.26,134.408,95.35C153.684,64.254,145.472,24.488,126.414,-6.742C108.217,-36.562,76.93,-56.136,41.996,-56.085C7.149,-56.034,-24.952,-36.891,-41.994,-6.496C-58.676,23.257,-57.249,59.925,-39.319,88.944C-22.26,116.553,9.564,128.243,41.996,129.439" fill="rgba(199, 239, 207, 0.45)" class="triangle-float3"></path><path d="M286.998,608.577C409.972,610.704,543.502,577.035,601.507,468.58C657.413,364.048,602.449,241.387,535.818,143.342C478.725,59.332,388.565,4.637,286.998,5.792C187.419,6.925,102.359,65.588,47.793,148.893C-13.74,242.835,-61.051,358.395,-9.212,458.015C45.587,563.322,168.304,606.524,286.998,608.577" fill="rgba(199, 239, 207, 0.45)" class="triangle-float3"></path><path d="M188.564,448.918C280.756,448.531,365.493,397.148,409.993,316.406C453.034,238.311,447.932,141.615,399.022,67.056C354.305,-1.111,270.087,-20.557,188.564,-21.144C105.694,-21.741,18.529,-5.12,-27.213,63.985C-77.389,139.789,-80.56,238.982,-36.109,318.279C9.293,399.273,95.714,449.308,188.564,448.918" fill="rgba(199, 239, 207, 0.45)" class="triangle-float1"></path><path d="M1885.758,430.526C1978.808,433.91,2087.912,429.973,2133.167,348.6C2177.804,268.339,2116.373,178.655,2069.882,99.454C2024.271,21.751,1975.565,-65.612,1885.758,-72.886C1785.93,-80.972,1689.065,-23.403,1641.539,64.758C1596.072,149.098,1614.462,251.988,1667.667,331.673C1715.17,402.819,1800.268,427.417,1885.758,430.526" fill="rgba(199, 239, 207, 0.45)" class="triangle-float2"></path><path d="M1736.241,183.814C1779.973,182.886,1815.918,152.744,1837.181,114.518C1857.793,77.463,1861.078,33.114,1840.774,-4.111C1819.585,-42.957,1780.434,-72.762,1736.241,-70.539C1694.788,-68.454,1669.103,-30.446,1648.46,5.561C1627.971,41.3,1609.397,82.009,1627.597,118.967C1647.567,159.52,1691.048,184.773,1736.241,183.814" fill="rgba(199, 239, 207, 0.45)" class="triangle-float3"></path><path d="M1712.949,124.075C1747.349,125.788,1781.663,112.343,1800.363,83.418C1820.719,51.932,1825.46,11.283,1806.945,-21.32C1788.228,-54.278,1750.825,-71.913,1712.949,-70.512C1677.352,-69.195,1646.305,-46.593,1630.274,-14.783C1615.699,14.138,1622.844,47.578,1639.412,75.405C1655.529,102.475,1681.483,122.509,1712.949,124.075" fill="rgba(199, 239, 207, 0.45)" class="triangle-float1"></path><path d="M193.693,1405.222C281.453,1407.891,358.216,1350.056,401.151,1273.469C443.105,1198.631,447.294,1106.299,402.177,1033.324C359.102,963.652,275.599,938.972,193.693,937.914C109.444,936.826,17.775,954.836,-24.334,1027.815C-66.429,1100.77,-35.14,1188.551,6.993,1261.484C49.101,1334.374,109.553,1402.664,193.693,1405.222" fill="rgba(199, 239, 207, 0.45)" class="triangle-float1"></path><path d="M288.501,1607.913C406.036,1603.016,478.067,1493.782,537.147,1392.057C596.605,1289.68,654.537,1173.551,602.538,1067.191C545.447,950.416,418.485,883.442,288.501,883.473C158.569,883.504,36.561,953.068,-25.281,1067.339C-84.465,1176.699,-61.249,1306.845,1.176,1414.388C63.307,1521.426,164.844,1613.065,288.501,1607.913" fill="rgba(199, 239, 207, 0.45)" class="triangle-float2"></path><path d="M87.241,1202.336C143.715,1205.57,202.261,1178.801,227.004,1127.933C249.741,1081.189,220.425,1030.289,192.142,986.676C167.158,948.149,133.148,913.457,87.241,912.411C39.739,911.329,-2.75,940.421,-26.278,981.701C-49.573,1022.571,-48.822,1071.54,-27.3,1113.371C-3.594,1159.445,35.511,1199.374,87.241,1202.336" fill="rgba(199, 239, 207, 0.45)" class="triangle-float1"></path><path d="M1994.55,1663.472C2129.225,1671.354,2246.081,1575.504,2310.792,1457.133C2372.828,1343.656,2367.765,1208.381,2305.222,1095.183C2240.392,977.845,2128.601,883.484,1994.55,884.754C1862.254,886.007,1751.055,981.651,1693.908,1100.974C1643.7,1205.808,1681.727,1321.011,1736.518,1423.524C1795.857,1534.546,1868.88,1656.117,1994.55,1663.472" fill="rgba(199, 239, 207, 0.45)" class="triangle-float2"></path><path d="M1870.611,1406.136C1955.613,1401.245,2019.032,1334.493,2057.866,1258.722C2092.983,1190.205,2092.679,1111.245,2056.612,1043.223C2017.885,970.184,1953.147,910.284,1870.611,905.565C1780.034,900.386,1690.77,942.045,1643.722,1019.617C1594.987,1099.97,1594.329,1201.609,1641.903,1282.655C1688.911,1362.736,1777.906,1411.47,1870.611,1406.136" fill="rgba(199, 239, 207, 0.45)" class="triangle-float2"></path><path d="M1834.585,1306.405C1907.249,1308.741,1982.697,1284.045,2019.433,1221.307C2056.486,1158.028,2039.796,1080.765,2004.273,1016.615C1967.369,949.97,1910.73,885.188,1834.585,887.491C1760.852,889.721,1715.441,960.724,1681.79,1026.369C1651.785,1084.902,1637.731,1152.309,1669.236,1210.049C1701.984,1270.068,1766.248,1304.208,1834.585,1306.405" fill="rgba(199, 239, 207, 0.45)" class="triangle-float3"></path></g><defs><mask id="SvgjsMask1278"><rect width="1920" height="1200" fill="#ffffff"></rect></mask><radialGradient cx="50%" cy="50%" r="1132.08" gradientUnits="userSpaceOnUse" id="SvgjsRadialGradient1279"><stop stop-color="rgba(238, 245, 219, 1)" offset="0"></stop><stop stop-color="rgba(254, 95, 85, 1)" offset="1"></stop></radialGradient><style>
                @keyframes float1 {
                    0%{transform: translate(0, 0)}
                    50%{transform: translate(-10px, 0)}
                    100%{transform: translate(0, 0)}
                }

                .triangle-float1 {
                    animation: float1 5s infinite;
                }

                @keyframes float2 {
                    0%{transform: translate(0, 0)}
                    50%{transform: translate(-5px, -5px)}
                    100%{transform: translate(0, 0)}
                }

                .triangle-float2 {
                    animation: float2 4s infinite;
                }

                @keyframes float3 {
                    0%{transform: translate(0, 0)}
                    50%{transform: translate(0, -10px)}
                    100%{transform: translate(0, 0)}
                }

                .triangle-float3 {
                    animation: float3 6s infinite;
                }
            </style></defs></svg>