<svg xmlns="http://www.w3.org/2000/svg" version="1.1" xmlns:xlink="http://www.w3.org/1999/xlink" xmlns:svgjs="http://svgjs.dev/svgjs" width="1920" height="1200" preserveAspectRatio="none" viewBox="0 0 1920 1200"><g mask="url(&quot;#SvgjsMask1017&quot;)" fill="none"><rect width="1920" height="1200" x="0" y="0" fill="rgba(254, 95, 85, 1)"></rect><path d="M0,557.398C107.388,557.717,209.859,524.625,304.276,473.462C404.49,419.158,507.791,357.149,558.2,254.921C609.173,151.55,578.01,32.037,578.776,-83.215C579.691,-221.018,650.692,-381.544,563.135,-487.959C475.915,-593.964,303.905,-548.52,170.23,-579.752C45.863,-608.81,-74.566,-706.788,-195.31,-665.166C-315.948,-623.581,-368.4,-484.412,-430.205,-372.775C-481.545,-280.04,-499.776,-178.694,-522.01,-75.054C-546.001,36.78,-608.101,152.112,-565.587,258.295C-522.812,365.132,-404.849,417.859,-303.117,471.659C-208.375,521.762,-107.174,557.08,0,557.398" fill="#fe2012"></path><path d="M1920 1852.5439999999999C2050.858 1827.5610000000001 2186.771 1858.551 2308.639 1804.7350000000001 2443.81 1745.045 2589.13 1667.951 2646.44 1531.754 2703.473 1396.216 2633.642 1245.717 2604.52 1101.581 2577.098 965.859 2549.805 834 2481.167 713.746 2399.724 571.057 2319.1530000000002 415.38 2171.604 343.11400000000003 2014.669 266.251 1828.163 267.29999999999995 1658.984 311.05999999999995 1486.594 355.65099999999995 1289.78 428.03599999999994 1216.278 590.222 1142.358 753.331 1301.642 931.3779999999999 1296.733 1110.388 1292.667 1258.657 1169.0149999999999 1386.415 1190.4189999999999 1533.188 1214.875 1700.894 1267.397 1905.923 1422.655 1973.883 1582.211 2043.725 1748.9180000000001 1885.2060000000001 1920 1852.5439999999999" fill="#fe9e98"></path></g><defs><mask id="SvgjsMask1017"><rect width="1920" height="1200" fill="#ffffff"></rect></mask></defs></svg>